HIERARCHY
ROOT root
{
	OFFSET 0.000000 0.000000 0.000000
	CHANNELS 6 Xposition Yposition Zposition Zrotation Yrotation Xrotation
	JOINT lhip
	{
		OFFSET 0.058581 -0.082280 -0.017664
		CHANNELS 3 Zrotation Yrotation Xrotation
		JOINT lknee
		{
			OFFSET 0.043451 -0.386469 0.008037
			CHANNELS 3 Zrotation Yrotation Xrotation
			JOINT lankle
			{
				OFFSET -0.014790 -0.426874 -0.037428
				CHANNELS 3 Zrotation Yrotation Xrotation
				JOINT ltoe
				{
					OFFSET 0.041054 -0.060286 0.122042
					CHANNELS 3 Zrotation Yrotation Xrotation
					End Site
					{
						OFFSET 0.000000 0.000000 0.000000
					}
				}
			}
		}
	}
	JOINT rhip
	{
		OFFSET -0.060310 -0.090513 -0.013543
		CHANNELS 3 Zrotation Yrotation Xrotation
		JOINT rknee
		{
			OFFSET -0.043257 -0.383688 -0.004843
			CHANNELS 3 Zrotation Yrotation Xrotation
			JOINT rankle
			{
				OFFSET 0.019056 -0.420046 -0.034562
				CHANNELS 3 Zrotation Yrotation Xrotation
				JOINT rtoe
				{
					OFFSET -0.034840 -0.062106 0.130323
					CHANNELS 3 Zrotation Yrotation Xrotation
					End Site
					{
						OFFSET 0.000000 0.000000 0.000000
					}
				}
			}
		}
	}
	JOINT lowerback
	{
		OFFSET 0.004439 0.124404 -0.038385
		CHANNELS 3 Zrotation Yrotation Xrotation
		JOINT upperback
		{
			OFFSET 0.004488 0.137956 0.026820
			CHANNELS 3 Zrotation Yrotation Xrotation
			JOINT chest
			{
				OFFSET -0.002265 0.056032 0.002855
				CHANNELS 3 Zrotation Yrotation Xrotation
				JOINT lowerneck
				{
					OFFSET -0.013390 0.211636 -0.033468
					CHANNELS 3 Zrotation Yrotation Xrotation
					JOINT upperneck
					{
						OFFSET 0.010113 0.088937 0.050410
						CHANNELS 3 Zrotation Yrotation Xrotation
						End Site
						{
							OFFSET 0.000000 0.000000 0.000000
						}
					}
				}
				JOINT lclavicle
				{
					OFFSET 0.071702 0.114000 -0.018898
					CHANNELS 3 Zrotation Yrotation Xrotation
					JOINT lshoulder
					{
						OFFSET 0.122921 0.045205 -0.019046
						CHANNELS 3 Zrotation Yrotation Xrotation
						JOINT lelbow
						{
							OFFSET 0.255332 -0.015649 -0.022946
							CHANNELS 3 Zrotation Yrotation Xrotation
							JOINT lwrist
							{
								OFFSET 0.265709 0.012698 -0.007375
								CHANNELS 3 Zrotation Yrotation Xrotation
								End Site
								{
									OFFSET 0.000000 0.000000 0.000000
								}
							}
						}
					}
				}
				JOINT rclavicle
				{
					OFFSET -0.082954 0.112472 -0.023707
					CHANNELS 3 Zrotation Yrotation Xrotation
					JOINT rshoulder
					{
						OFFSET -0.113228 0.046853 -0.008472
						CHANNELS 3 Zrotation Yrotation Xrotation
						JOINT relbow
						{
							OFFSET -0.260127 -0.014369 -0.031269
							CHANNELS 3 Zrotation Yrotation Xrotation
							JOINT rwrist
							{
								OFFSET -0.269108 0.006794 -0.006027
								CHANNELS 3 Zrotation Yrotation Xrotation
								End Site
								{
									OFFSET 0.000000 0.000000 0.000000
								}
							}
						}
					}
				}
			}
		}
	}
}
MOTION
Frames: 10
Frame Time: 0.033333
-0.921454 -0.243334 0.979441 178.135186 1.866120 92.482189 10.883965 4.205620 -3.901771 -2.761716 -1.224734 6.449202 2.194777 7.024336 -9.558020 0.000000 -0.000000 0.000000 -7.423655 -4.501063 -10.676134 0.515931 -2.907297 18.898566 4.442282 -6.742976 -9.536033 0.000000 -0.000000 0.000000 1.843421 -0.011818 9.928124 3.965039 -2.190058 -3.944599 -1.249471 -0.893838 -2.289745 1.040855 0.855131 -9.448922 0.858239 -1.196729 11.225988 -24.424820 -12.564482 0.922159 -48.039911 -18.786271 14.951540 82.508835 -82.771064 -66.130740 33.993594 2.921077 -8.775670 19.841805 17.753706 -0.462265 54.131173 18.543534 20.536606 -64.804152 70.478163 -53.655535 -12.812912 3.291552 -14.621420 
-0.921792 -0.244440 0.979841 178.068632 1.916690 92.626017 10.872831 4.198386 -4.262657 -2.728761 -1.104983 6.757147 2.087842 6.998821 -9.627092 0.000000 -0.000000 0.000000 -7.354934 -4.563713 -10.992299 0.499017 -2.926871 18.989379 4.478391 -6.690391 -9.464541 0.000000 -0.000000 0.000000 1.935991 0.071687 10.123282 3.943462 -2.332181 -4.004245 -1.320706 -0.733026 -2.443161 1.001256 1.221574 -9.803352 0.670518 -1.508461 11.294237 -24.342466 -13.947623 0.509738 -46.955843 -20.026393 14.485588 71.599155 -81.469490 -55.959662 33.701414 2.703155 -8.786311 19.934168 19.074785 -0.533713 53.266700 20.417298 19.900295 -61.704176 68.881994 -50.944446 -12.740770 3.511739 -14.531609 
-0.922151 -0.245377 0.980157 178.001068 1.988304 92.778907 10.886292 4.197226 -4.633862 -2.679220 -0.970223 7.067977 2.020433 6.978382 -9.694003 0.000000 -0.000000 0.000000 -7.275281 -4.621347 -11.268383 0.500909 -2.893515 19.011908 4.484382 -6.624407 -9.401607 0.000000 -0.000000 0.000000 2.100783 0.179575 10.235058 3.858487 -2.448225 -3.978733 -1.354818 -0.628883 -2.631986 0.931611 1.425526 -10.085643 0.523750 -1.751128 11.331808 -24.388159 -15.310251 0.168884 -45.970809 -21.179418 14.039519 62.497056 -79.884697 -47.578338 33.724652 2.426152 -8.408577 20.128441 20.374586 -0.517255 52.307879 22.080948 19.274883 -58.627025 67.162025 -48.467209 -13.268565 3.353498 -14.110957 
-0.922273 -0.246164 0.980394 177.873286 2.011380 92.851012 10.888610 4.216932 -4.856846 -2.649680 -0.815264 7.283323 1.943473 6.967947 -9.749003 0.000000 -0.000000 0.000000 -7.234725 -4.577493 -11.442233 0.503713 -2.837921 18.990677 4.499790 -6.593573 -9.314562 0.000000 -0.000000 0.000000 2.152196 0.255068 10.422858 3.731557 -2.457943 -3.898763 -1.357157 -0.525199 -2.851800 0.909908 1.581661 -10.382929 0.448955 -2.005914 11.409804 -24.442455 -16.669468 -0.136634 -45.091875 -22.325942 13.649126 55.332940 -77.960649 -41.309202 33.736286 2.008613 -7.809016 20.417983 21.667919 -0.438687 51.302461 23.503592 18.770761 -55.576964 65.328727 -46.465882 -14.175800 2.603289 -13.893947 
-0.922271 -0.246919 0.980701 177.744629 2.005316 92.819373 10.883905 4.252826 -4.908580 -2.638119 -0.662482 7.406430 1.842876 6.887000 -9.779356 0.000000 -0.000000 0.000000 -7.203491 -4.525500 -11.524868 0.474646 -2.843601 19.002502 4.489150 -6.569120 -9.245404 0.000000 -0.000000 0.000000 2.064394 0.288577 10.742197 3.651993 -2.377526 -3.781981 -1.350974 -0.385254 -3.098539 0.942026 1.723641 -10.723432 0.427486 -2.281466 11.539551 -24.461942 -17.993242 -0.390205 -44.314174 -23.593674 13.161350 49.432952 -75.710347 -36.386437 32.942773 1.427206 -7.621556 20.744977 22.918702 -0.341450 50.210533 24.974808 17.998751 -52.399039 63.282787 -44.151738 -14.108167 2.807364 -13.530445 
-0.922426 -0.247743 0.981056 177.705066 2.000469 92.774779 10.860744 4.258475 -4.929932 -2.618505 -0.564371 7.464747 1.772457 6.791513 -9.776565 0.000000 -0.000000 0.000000 -7.177966 -4.495242 -11.600914 0.447336 -2.856436 19.058567 4.445455 -6.632599 -9.213494 0.000000 -0.000000 0.000000 1.933950 0.295044 11.093794 3.634798 -2.274186 -3.713530 -1.317655 -0.245334 -3.300131 0.965502 1.786699 -11.012699 0.408238 -2.570780 11.628482 -24.491110 -19.322138 -0.643917 -43.517204 -24.973459 12.575512 43.987740 -73.115994 -32.034767 31.789334 0.969322 -7.747310 20.974883 24.134379 -0.228679 48.991393 26.413010 17.143470 -49.185343 61.046091 -41.678841 -13.950287 2.980797 -13.141833 
-0.922816 -0.248595 0.981366 177.760408 2.006556 92.778157 10.821858 4.262897 -4.996087 -2.581615 -0.541348 7.452945 1.737264 6.716300 -9.760728 0.000000 -0.000000 0.000000 -7.169690 -4.478475 -11.714335 0.434802 -2.841091 19.151302 4.417474 -6.737088 -9.221414 0.000000 -0.000000 0.000000 1.853778 0.292766 11.409771 3.622523 -2.241445 -3.697863 -1.253302 -0.108444 -3.479609 0.925035 1.752055 -11.216865 0.390652 -2.857079 11.710592 -24.516991 -20.723100 -0.838376 -42.527808 -26.303488 11.926995 39.167397 -70.260954 -28.376122 30.631817 0.693971 -8.005179 21.076324 25.385068 -0.099509 47.678860 27.730205 16.217647 -45.959919 58.647648 -39.315318 -13.721892 3.035407 -12.870852 
-0.923234 -0.249411 0.981580 177.867616 1.995704 92.814812 10.788546 4.282118 -5.087397 -2.586607 -0.592132 7.381156 1.686415 6.682418 -9.737944 0.000000 -0.000000 0.000000 -7.195732 -4.461516 -11.842857 0.447475 -2.814355 19.256570 4.430570 -6.859876 -9.236588 0.000000 -0.000000 0.000000 1.808097 0.295641 11.720563 3.584816 -2.328933 -3.674665 -1.196669 0.023963 -3.692646 0.814321 1.798294 -11.370394 0.426865 -3.170257 11.768763 -24.447670 -22.238434 -0.928405 -41.243365 -27.384533 11.273946 35.363864 -67.349118 -25.890320 29.642824 0.670974 -8.454271 21.175083 26.726043 0.101871 46.365910 28.910326 15.261130 -43.066152 56.131167 -37.509032 -13.480848 2.936298 -12.775693 
-0.923535 -0.250222 0.981736 178.026274 1.949661 92.865296 10.756945 4.293715 -5.224008 -2.654310 -0.713708 7.334354 1.587568 6.690040 -9.688129 0.000000 -0.000000 0.000000 -7.249341 -4.478934 -11.983262 0.480248 -2.802848 19.376029 4.453173 -7.022327 -9.244186 0.000000 -0.000000 0.000000 1.738832 0.323060 12.047366 3.551345 -2.526899 -3.589971 -1.172622 0.116871 -3.919851 0.686687 2.036182 -11.558851 0.538631 -3.528414 11.732131 -24.185547 -23.845756 -0.948626 -39.748969 -28.209708 10.675034 32.441744 -64.518855 -24.507504 28.869918 0.896582 -9.150301 21.377585 28.126437 0.382973 45.134412 30.054185 14.325454 -40.702541 53.480683 -36.311853 -13.301804 2.747673 -12.771954 
-0.923789 -0.251086 0.981895 178.269070 1.887438 92.962024 10.690468 4.273573 -5.488781 -2.704271 -0.885653 7.386142 1.468442 6.723067 -9.611648 0.000000 -0.000000 0.000000 -7.298613 -4.552184 -12.187097 0.509123 -2.786755 19.532458 4.454396 -7.249301 -9.264910 0.000000 -0.000000 0.000000 1.623223 0.364559 12.349806 3.552742 -2.773567 -3.454544 -1.144086 0.133019 -4.087417 0.600175 2.342968 -11.865366 0.683590 -3.887084 11.606395 -23.694457 -25.452516 -0.988996 -38.238322 -28.946987 10.132918 29.944473 -61.846738 -23.607377 28.426591 1.123286 -9.757664 21.635028 29.470009 0.692236 44.041077 31.209866 13.408382 -38.833075 50.723467 -35.628034 -13.234401 2.579213 -12.675737 
